<svg xmlns="http://www.w3.org/2000/svg" xmlns:svg="http://www.w3.org/2000/svg" id="Layer_1" width="10.435" height="11.002" data-name="Layer 1" version="1.1" viewBox="0 0 10.435 11.002"><metadata id="metadata1201"/><defs id="defs1188"><style id="style1186"/></defs><title id="title1190">Hipster</title><g id="g1196" transform="translate(-4.4609375,-5.5)"><path id="path1192" d="m 4.4609375,5.5 v 1.0996094 h 1.0996094 l 2,4.1699216 -0.75,1.34961 c -0.083803,0.164211 -0.1291659,0.346898 -0.1308594,0.53125 0,0.607513 0.4920962,1.099609 1.0996094,1.099609 H 14.380859 V 12.650391 H 8 c -0.081192,0.0058 -0.1505985,-0.05923 -0.1503906,-0.140625 v -0.06055 l 0.4902344,-0.898438 h 4.0996092 c 0.414076,0.01348 0.800604,-0.207156 1,-0.570312 l 1.456089,-4.4008431 -8.1260108,0.019984 v 0 L 6.25,5.5 Z M 7.1729534,7.576157 13.673828,7.54223 12.681641,10.603516 8.5214844,10.589846 Z m 0.5868122,6.724624 c -0.9800635,0 -1.4702693,1.184027 -0.7773437,1.876953 0.6929255,0.692925 1.8769531,0.20272 1.8769531,-0.777343 0,-0.607513 -0.4920962,-1.09961 -1.0996094,-1.09961 z m 5.5000004,0 c -0.980063,0 -1.470269,1.184027 -0.777344,1.876953 0.692926,0.692925 1.876953,0.20272 1.876953,-0.777343 0,-0.607513 -0.492096,-1.09961 -1.099609,-1.09961 z"/></g></svg>